<svg aria-hidden="true" style="position: absolute; width: 0; height: 0; overflow: hidden;" version="1.1" xmlns="http://www.w3.org/2000/svg" xmlns:xlink="http://www.w3.org/1999/xlink">
    <defs>
        <symbol id="icon-antenna" viewBox="0 0 64 64">
              <path fill="#2e2f42" style="fill: var(--color1, #2e2f42)" d="M61.546 44.195l-16.886-17.010 1.874-9.231c0.484 0.189 0.998 0.288 1.517 0.291h0.013c2.385 0.028 4.34-1.882 4.369-4.267s-1.882-4.34-4.267-4.369c-2.385-0.028-4.34 1.882-4.369 4.267-0.006 0.51 0.078 1.017 0.249 1.498l-9.92 1.211-16.181-16.266c-0.198-0.203-0.47-0.318-0.753-0.32-0.28 0.001-0.548 0.113-0.747 0.31l-3.025 3.008c-0.416 0.417-0.416 1.092 0 1.508l1.628 1.651c-6.306 11.596-4.258 25.956 5.039 35.326 0.085 0.082 0.184 0.148 0.292 0.195-0.067 0.361-0.102 0.727-0.105 1.094v12.373h-12.8c-2.944 0.003-5.33 2.389-5.333 5.333v2.133c0 0.589 0.478 1.067 1.067 1.067h49.067c0.589 0 1.067-0.478 1.067-1.067v-2.133c-0.004-2.944-2.389-5.33-5.333-5.333h-12.8v-5.484c2.005 0.421 4.048 0.635 6.097 0.64 4.916-0.005 9.754-1.231 14.080-3.567l1.636 1.646c0.199 0.203 0.469 0.318 0.753 0.32 0.28-0.002 0.548-0.113 0.747-0.31l3.025-3.008c0.416-0.417 0.416-1.092 0-1.508zM46.56 12.466c0.835-0.831 2.186-0.827 3.017 0.008s0.827 2.186-0.008 3.017c-0.4 0.398-0.941 0.621-1.505 0.621h-0.006c-1.178-0.006-2.128-0.966-2.122-2.144 0.003-0.564 0.229-1.104 0.629-1.502h-0.004zM44.049 19.475l-1.197 5.891-2.351-2.365 3.548-3.526zM42.837 17.672l-3.84 3.818-2.971-2.987 6.811-0.831zM48.008 57.6c1.767 0 3.2 1.433 3.2 3.2v1.067h-46.933v-1.067c0-1.767 1.433-3.2 3.2-3.2h40.533zM33.075 53.333v2.133h-10.667v-2.133h10.667zM22.408 51.2v-8.107c0-2.588 2.393-4.693 5.333-4.693s5.333 2.106 5.333 4.693v8.107h-10.667zM35.208 47.808v-4.715c0-3.764-3.349-6.827-7.467-6.827-2.662-0.041-5.151 1.314-6.562 3.572-8.115-8.548-9.943-21.29-4.557-31.774l37.204 37.417c-5.745 2.922-12.33 3.745-18.618 2.326zM57.786 46.441l-42.114-42.362 1.509-1.504 15.87 15.96c0.008 0 0.012 0.014 0.019 0.019l26.229 26.383-1.514 1.504z"></path>
              <path fill="#4d5ae5" style="fill: var(--color2, #4d5ae5)" d="M27.751 40.533h-0.010c-1.767-0.003-3.202 1.428-3.205 3.195s1.428 3.202 3.195 3.205h0.010c1.767 0.003 3.202-1.428 3.205-3.195s-1.428-3.202-3.195-3.205zM28.498 44.49c-0.201 0.2-0.473 0.311-0.756 0.31-0.589-0.003-1.064-0.483-1.061-1.072 0.002-0.282 0.115-0.552 0.314-0.751 0.199-0.197 0.467-0.309 0.747-0.31 0.589 0.003 1.064 0.483 1.061 1.072-0.002 0.282-0.115 0.552-0.314 0.751h0.010z"></path>
        </symbol>
        <symbol id="icon-astronaut" viewBox="0 0 64 64">
            <path fill="#4d5ae5" style="fill: var(--color2, #4d5ae5)" d="M63.948 9.048c-0.126-0.385-0.459-0.667-0.861-0.725l-3.821-0.556-1.71-3.462c-0.358-0.73-1.554-0.73-1.913 0l-1.71 3.462-3.821 0.556c-0.402 0.059-0.735 0.339-0.862 0.725-0.125 0.386-0.021 0.811 0.27 1.093l2.766 2.696-0.653 3.806c-0.068 0.4 0.096 0.804 0.423 1.043 0.332 0.241 0.765 0.271 1.124 0.081l3.418-1.797 3.418 1.797c0.156 0.082 0.328 0.123 0.497 0.123 0.221 0 0.442-0.068 0.627-0.204 0.328-0.239 0.493-0.643 0.423-1.043l-0.653-3.806 2.766-2.696c0.29-0.284 0.394-0.707 0.27-1.093zM59.022 11.702c-0.251 0.244-0.366 0.598-0.306 0.944l0.382 2.228-2.001-1.052c-0.156-0.082-0.326-0.123-0.497-0.123s-0.34 0.040-0.497 0.123l-2.001 1.052 0.382-2.228c0.060-0.346-0.056-0.699-0.306-0.944l-1.62-1.579 2.238-0.325c0.348-0.050 0.648-0.269 0.803-0.584l1.001-2.027 1.001 2.027c0.156 0.315 0.456 0.533 0.803 0.584l2.238 0.325-1.618 1.579z"></path>
            <path fill="#4d5ae5" style="fill: var(--color2, #4d5ae5)" d="M52.267 41.044h-2.133v2.133h2.133v-2.133z"></path>
            <path fill="#4d5ae5" style="fill: var(--color2, #4d5ae5)" d="M52.267 45.311h-2.133v2.133h2.133v-2.133z"></path>
            <path fill="#4d5ae5" style="fill: var(--color2, #4d5ae5)" d="M54.4 43.178h-2.133v2.133h2.133v-2.133z"></path>
            <path fill="#4d5ae5" style="fill: var(--color2, #4d5ae5)" d="M50.134 43.178h-2.133v2.133h2.133v-2.133z"></path>
            <path fill="#4d5ae5" style="fill: var(--color2, #4d5ae5)" d="M44.8 52.778h-2.133v2.133h2.133v-2.133z"></path>
            <path fill="#4d5ae5" style="fill: var(--color2, #4d5ae5)" d="M44.8 57.045h-2.133v2.133h2.133v-2.133z"></path>
            <path fill="#4d5ae5" style="fill: var(--color2, #4d5ae5)" d="M46.934 54.911h-2.133v2.133h2.133v-2.133z"></path>
            <path fill="#4d5ae5" style="fill: var(--color2, #4d5ae5)" d="M42.667 54.911h-2.133v2.133h2.133v-2.133z"></path>
            <path fill="#4d5ae5" style="fill: var(--color2, #4d5ae5)" d="M32 48.511h-2.133v2.133h2.133v-2.133z"></path>
            <path fill="#4d5ae5" style="fill: var(--color2, #4d5ae5)" d="M32 52.778h-2.133v2.133h2.133v-2.133z"></path>
            <path fill="#4d5ae5" style="fill: var(--color2, #4d5ae5)" d="M34.133 50.645h-2.133v2.133h2.133v-2.133z"></path>
            <path fill="#4d5ae5" style="fill: var(--color2, #4d5ae5)" d="M29.867 50.645h-2.133v2.133h2.133v-2.133z"></path>
            <path fill="#4d5ae5" style="fill: var(--color2, #4d5ae5)" d="M11.733 12.244h-2.133v2.133h2.133v-2.133z"></path>
            <path fill="#4d5ae5" style="fill: var(--color2, #4d5ae5)" d="M11.733 16.511h-2.133v2.133h2.133v-2.133z"></path>
            <path fill="#4d5ae5" style="fill: var(--color2, #4d5ae5)" d="M13.866 14.377h-2.133v2.133h2.133v-2.133z"></path>
            <path fill="#4d5ae5" style="fill: var(--color2, #4d5ae5)" d="M9.6 14.377h-2.133v2.133h2.133v-2.133z"></path>
            <path fill="#2e2f42" style="fill: var(--color1, #2e2f42)" d="M49.429 28.319c-0.575-0.776-1.419-1.275-2.377-1.409-0.962-0.137-1.912 0.116-2.68 0.704l-2.505 1.92-3.795 2.834-2.716-1.082c4.843-2.173 8.227-7.017 8.227-12.64 0-7.646-6.245-13.867-13.922-13.867s-13.922 6.221-13.922 13.867c0 2.771 0.829 5.348 2.24 7.517l-5.528-0.048c-0.003 0-0.006 0-0.010 0-0.017 0-0.031 0.009-0.047 0.010-0.106 0.004-0.209 0.026-0.31 0.062-0.026 0.010-0.052 0.015-0.077 0.027-0.013 0.005-0.026 0.006-0.038 0.013l-6.466 3.193c-0.001 0-0.002 0-0.002 0.001l-3.787 1.821c-0.042 0.018-0.084 0.043-0.126 0.070-1.509 1.005-2.023 2.978-1.197 4.591 0.441 0.858 1.19 1.489 2.112 1.778 0.355 0.111 0.718 0.165 1.078 0.165 0.579 0 1.153-0.142 1.679-0.422l2.776-1.476 4.528-2.338 2.714-0.016-10.883 10.831c-0.001 0.001-0.002 0.001-0.003 0.002l-2.677 2.667c-0.632 0.629-0.98 1.465-0.98 2.355 0 0.89 0.348 1.727 0.98 2.357 0.65 0.646 1.504 0.971 2.358 0.971 0.856 0 1.709-0.324 2.361-0.971l2.628-2.618 3.482-2.599 1.802 1.794-3.523 3.508c-0.001 0.001-0.002 0.001-0.003 0.002l-2.677 2.667c-0.633 0.629-0.98 1.465-0.98 2.355 0 0.89 0.348 1.727 0.98 2.357 0.65 0.646 1.505 0.971 2.36 0.971s1.71-0.324 2.361-0.971l6.963-6.933c0.001-0.001 0.001-0.002 0.002-0.003l2.019-2-0.008-0.008c0.013-0.013 0.031-0.017 0.044-0.031l10.332-11.316 6.942 0.988c0.050 0.008 0.1 0.011 0.15 0.011 0.129 0 0.254-0.031 0.374-0.077 0.035-0.013 0.066-0.030 0.099-0.047 0.038-0.019 0.079-0.030 0.115-0.054l6.427-4.267c0.023-0.016 0.036-0.042 0.059-0.059 0.026-0.020 0.058-0.029 0.081-0.051l2.543-2.382c1.323-1.24 1.505-3.271 0.424-4.724zM4.261 35.54c-0.347 0.186-0.74 0.223-1.117 0.103-0.373-0.116-0.676-0.371-0.853-0.716-0.322-0.627-0.135-1.391 0.429-1.804l2.627-1.264 0.898 2.625-1.984 1.055zM11.255 31.885l-3.097 1.6-0.878-2.567 4.054-2.001-0.079 2.968zM41.454 18.644c0 1.837-0.438 3.569-1.198 5.119l-8.363-3.798c-0.087-1.147-0.683-2.15-1.576-2.776l2.928-9.721c4.755 1.513 8.209 5.949 8.209 11.176zM17.876 18.644c0-6.469 5.289-11.733 11.789-11.733 0.506 0 1.001 0.043 1.49 0.104l-2.864 9.507c-0.038-0.001-0.075-0.012-0.114-0.012-2.065 0-3.745 1.675-3.745 3.733s1.68 3.733 3.745 3.733c1.389 0 2.589-0.767 3.236-1.889l7.725 3.509c-2.149 2.893-5.59 4.78-9.473 4.78-6.5 0-11.789-5.264-11.789-11.734zM29.789 20.244c0 0.882-0.723 1.6-1.612 1.6s-1.612-0.718-1.612-1.6c0-0.882 0.723-1.6 1.612-1.6s1.612 0.718 1.612 1.6zM4.93 50.292c-0.473 0.468-1.237 0.467-1.709 0.001-0.227-0.227-0.352-0.527-0.352-0.846 0-0.318 0.125-0.618 0.352-0.843l1.924-1.917 1.702 1.695-1.918 1.909zM11.357 57.759c-0.473 0.468-1.238 0.469-1.71 0.001-0.227-0.227-0.352-0.527-0.352-0.846 0-0.318 0.125-0.618 0.352-0.843l1.925-1.918 1.704 1.695-1.919 1.91zM18.321 50.822c-0.001 0.001-0.002 0.001-0.003 0.002l-3.53 3.52-1.704-1.695 3.526-3.51c0 0 0 0 0-0.001 0.001-0.001 0.002-0.001 0.003-0.002 0.080-0.080 0.13-0.176 0.179-0.271 0.014-0.028 0.041-0.051 0.052-0.080 0.033-0.082 0.038-0.171 0.051-0.257 0.006-0.049 0.028-0.095 0.028-0.145 0-0.072-0.026-0.141-0.041-0.211-0.013-0.064-0.013-0.129-0.037-0.191-0.041-0.1-0.11-0.189-0.182-0.275-0.020-0.023-0.028-0.053-0.050-0.076 0 0 0 0-0.001 0s-0.001-0.003-0.002-0.004l-3.214-3.2c-0.034-0.034-0.078-0.048-0.116-0.077-0.056-0.044-0.111-0.084-0.174-0.115-0.061-0.030-0.123-0.048-0.187-0.065-0.068-0.019-0.134-0.034-0.206-0.039-0.065-0.004-0.126 0.002-0.191 0.010-0.072 0.008-0.139 0.018-0.208 0.041-0.067 0.021-0.127 0.054-0.189 0.090-0.040 0.022-0.084 0.030-0.122 0.058l-3.547 2.648-1.802-1.794 4.798-4.772 8.721 8.577-1.855 1.838zM31.958 36.788c-0.031-0.004-0.060 0.008-0.091 0.005-0.078-0.004-0.152 0.001-0.23 0.014-0.061 0.011-0.118 0.022-0.176 0.043-0.068 0.023-0.13 0.056-0.193 0.094-0.060 0.036-0.114 0.075-0.166 0.123-0.026 0.022-0.056 0.033-0.080 0.059l-9.396 10.291-8.656-8.513 5.666-5.636c0.417-0.416 0.419-1.091 0.003-1.509-0.21-0.21-0.486-0.314-0.763-0.313v-0.001l-4.437 0.027 0.056-3.215 6.208 0.053c2.53 2.588 6.059 4.202 9.963 4.202 0.875 0 1.728-0.091 2.559-0.245 0.080 0.064 0.159 0.129 0.259 0.17l4.819 1.92 0.305 1.517 0.356 1.771-6.005-0.854zM40.041 37.145l-0.626-3.116 2.893-2.16 1.893 2.513-4.16 2.763zM47.548 31.483l-1.676 1.57-1.862-2.473 1.663-1.275c0.31-0.239 0.702-0.336 1.086-0.286 0.386 0.054 0.727 0.256 0.96 0.569 0.433 0.584 0.359 1.397-0.171 1.894z"></path>
            <path fill="#2e2f42" style="fill: var(--color1, #2e2f42)" d="M27.204 37.088l-4.286-4.267c-0.415-0.415-1.089-0.415-1.505 0l-4.285 4.267c-0.201 0.202-0.314 0.472-0.314 0.756s0.112 0.556 0.314 0.756l4.285 4.267c0.208 0.207 0.481 0.31 0.753 0.31s0.545-0.103 0.752-0.31l4.286-4.267c0.201-0.2 0.315-0.472 0.315-0.756s-0.113-0.556-0.315-0.756zM22.166 40.606l-2.773-2.762 2.773-2.762 2.774 2.762-2.774 2.762z"></path>
            <path fill="#2e2f42" style="fill: var(--color1, #2e2f42)" d="M34.328 10.142l-0.515 2.072c0.142 0.035 3.475 0.903 3.475 4.298h2.133c-0-4.034-3.331-5.931-5.093-6.369z"></path>
            <path fill="#2e2f42" style="fill: var(--color1, #2e2f42)" d="M39.422 18.644h-2.133v2.134h2.133v-2.134z"></path>
        </symbol>
        <symbol id="icon-clock" viewBox="0 0 64 64">
            <path fill="#2e2f42" style="fill: var(--color1, #2e2f42)" d="M62.593 30.602c-0.003-16.905-13.711-30.606-30.616-30.602s-30.606 13.711-30.602 30.616c0.003 13.316 8.614 25.102 21.299 29.152 0.121 0.038 0.247 0.058 0.374 0.057 0.241-0.001 0.477-0.065 0.685-0.188 0.27-0.16 0.472-0.414 0.566-0.713l7.73-24.5c2.113-0.011 3.817-1.733 3.806-3.846s-1.733-3.817-3.846-3.807c-0.568 0.002-1.129 0.133-1.64 0.383l-10.212-10.213c-0.507-0.489-1.314-0.475-1.803 0.031-0.478 0.495-0.478 1.278 0 1.773l10.206 10.218c-0.783 1.599-0.335 3.528 1.073 4.618l-7.365 23.346c-14.556-5.362-22.009-21.508-16.647-36.063s21.508-22.009 36.063-16.647c14.556 5.362 22.009 21.508 16.647 36.063-2.62 7.111-8.002 12.862-14.924 15.947l-0.796-3.748c-0.145-0.689-0.823-1.129-1.512-0.983-0.217 0.046-0.419 0.148-0.585 0.296l-7.674 6.851c-0.526 0.468-0.573 1.274-0.105 1.801 0.152 0.171 0.348 0.298 0.566 0.368l9.797 3.127c0.67 0.215 1.389-0.153 1.604-0.824 0.068-0.212 0.080-0.438 0.034-0.655l-0.782-3.678c11.329-4.776 18.684-15.884 18.658-28.178zM31.984 29.327c0.704 0 1.275 0.571 1.275 1.275s-0.571 1.275-1.275 1.275c-0.705 0-1.275-0.571-1.275-1.275s0.571-1.275 1.275-1.275zM36.185 59.055l4.368-3.897 1.206 5.681-5.574-1.784z"></path>
            <path fill="#4d5ae5" style="fill: var(--color2, #4d5ae5)" d="M30.709 6.37v2.551c0 0.705 0.571 1.275 1.275 1.275s1.275-0.571 1.275-1.275v-2.551c0-0.704-0.571-1.275-1.275-1.275s-1.275 0.571-1.275 1.275z"></path>
            <path fill="#4d5ae5" style="fill: var(--color2, #4d5ae5)" d="M7.752 29.327c-0.705 0-1.275 0.571-1.275 1.275s0.571 1.275 1.275 1.275h2.551c0.705 0 1.275-0.571 1.275-1.275s-0.571-1.275-1.275-1.275h-2.551z"></path>
            <path fill="#4d5ae5" style="fill: var(--color2, #4d5ae5)" d="M56.216 31.878c0.705 0 1.275-0.571 1.275-1.275s-0.571-1.275-1.275-1.275h-2.551c-0.704 0-1.275 0.571-1.275 1.275s0.571 1.275 1.275 1.275h2.551z"></path>
        </symbol>
        <symbol id="icon-diagram" viewBox="0 0 64 64">
             <path fill="#4d5ae5" style="fill: var(--color2, #4d5ae5)" d="M29.851 29.929h2.132v9.595h-2.132v-9.595z"></path>
             <path fill="#4d5ae5" style="fill: var(--color2, #4d5ae5)" d="M38.38 34.194h2.132v5.331h-2.132v-5.331z"></path>
             <path fill="#4d5ae5" style="fill: var(--color2, #4d5ae5)" d="M21.322 37.392h2.132v2.132h-2.132v-2.132z"></path>
             <path fill="#4d5ae5" style="fill: var(--color2, #4d5ae5)" d="M14.925 36.326h2.132v3.198h-2.132v-3.198z"></path>
             <path fill="#2e2f42" style="fill: var(--color1, #2e2f42)" d="M3.198 56.582h51.173c1.766 0 3.198-1.432 3.198-3.198v-4.264c0-1.766-1.432-3.198-3.198-3.198h-1.066v-26.587l6.056-5.737c1.405 0.693 3.107 0.272 4.026-0.997s0.791-3.017-0.305-4.137-2.84-1.287-4.13-0.396c-1.289 0.892-1.747 2.584-1.085 4.004l-4.563 4.325v-2.46c0-1.766-1.432-3.198-3.198-3.198h-42.644c-1.766 0-3.198 1.432-3.198 3.198v31.983h-1.066c-1.766 0-3.198 1.432-3.198 3.198v4.264c0 1.766 1.432 3.198 3.198 3.198zM60.768 9.673c0.589 0 1.066 0.477 1.066 1.066s-0.477 1.066-1.066 1.066c-0.589 0-1.066-0.477-1.066-1.066s0.477-1.066 1.066-1.066zM6.397 13.938c0-0.589 0.477-1.066 1.066-1.066h42.644c0.589 0 1.066 0.477 1.066 1.066v4.477l-2.132 2.026v-4.371c0-0.589-0.477-1.066-1.066-1.066h-38.38c-0.589 0-1.066 0.477-1.066 1.066v26.653c0 0.589 0.477 1.066 1.066 1.066h38.38c0.589 0 1.066-0.477 1.066-1.066v-19.349l2.132-2.020v24.567h-44.777v-31.983zM15.992 27.797c-1.442-0.004-2.709 0.957-3.093 2.347s0.21 2.865 1.451 3.601c1.24 0.736 2.82 0.551 3.856-0.452l3.706 1.859c0.43 0.215 0.953 0.114 1.273-0.245l7.878-8.863 7.744 5.803c0.415 0.311 0.995 0.278 1.372-0.079l6.73-6.375v16.262h-36.248v-24.52h36.248v5.321l-7.543 7.143-7.809-5.854c-0.444-0.332-1.068-0.27-1.436 0.144l-7.986 8.985-2.985-1.493c0.022-0.128 0.035-0.257 0.041-0.387 0-1.766-1.432-3.198-3.198-3.198zM17.058 30.995c0 0.589-0.477 1.066-1.066 1.066s-1.066-0.477-1.066-1.066c0-0.589 0.477-1.066 1.066-1.066s1.066 0.477 1.066 1.066zM23.454 48.053h10.661v1.066c0 0.589-0.477 1.066-1.066 1.066h-8.529c-0.589 0-1.066-0.477-1.066-1.066v-1.066zM2.132 49.119c0-0.589 0.477-1.066 1.066-1.066h18.124v1.066c0 1.766 1.432 3.198 3.198 3.198h8.529c1.766 0 3.198-1.432 3.198-3.198v-1.066h18.124c0.589 0 1.066 0.477 1.066 1.066v4.264c0 0.589-0.477 1.066-1.066 1.066h-51.173c-0.589 0-1.066-0.477-1.066-1.066v-4.264z"></path>
        </symbol>
        <symbol id="icon-instagram" viewBox="0 0 16 16">
              <path d="M15.984 4.704c-0.037-0.85-0.175-1.435-0.372-1.941-0.203-0.538-0.516-1.019-0.925-1.419-0.4-0.406-0.885-0.722-1.416-0.922-0.509-0.197-1.091-0.334-1.941-0.372-0.857-0.041-1.128-0.050-3.301-0.050s-2.444 0.009-3.298 0.047c-0.85 0.037-1.435 0.175-1.941 0.372-0.538 0.203-1.019 0.516-1.419 0.925-0.406 0.4-0.722 0.885-0.922 1.416-0.197 0.51-0.334 1.091-0.372 1.941-0.041 0.856-0.050 1.128-0.050 3.301s0.009 2.444 0.047 3.298c0.037 0.85 0.175 1.435 0.372 1.941 0.203 0.538 0.519 1.019 0.925 1.419 0.4 0.406 0.885 0.722 1.416 0.922 0.51 0.197 1.091 0.335 1.941 0.372 0.853 0.038 1.125 0.047 3.298 0.047s2.444-0.009 3.298-0.047c0.85-0.037 1.435-0.175 1.941-0.372 1.075-0.416 1.925-1.266 2.341-2.341 0.197-0.509 0.334-1.091 0.372-1.941 0.038-0.853 0.047-1.125 0.047-3.298s-0.003-2.444-0.041-3.298zM14.543 11.236c-0.034 0.781-0.166 1.203-0.275 1.485-0.269 0.697-0.822 1.25-1.519 1.519-0.281 0.109-0.706 0.241-1.485 0.275-0.844 0.038-1.097 0.047-3.232 0.047s-2.391-0.009-3.232-0.047c-0.781-0.034-1.203-0.166-1.485-0.275-0.347-0.128-0.663-0.331-0.919-0.597-0.266-0.259-0.469-0.572-0.597-0.919-0.109-0.281-0.241-0.706-0.275-1.485-0.038-0.844-0.047-1.097-0.047-3.232s0.009-2.391 0.047-3.232c0.034-0.781 0.166-1.203 0.275-1.485 0.128-0.347 0.331-0.663 0.6-0.919 0.259-0.266 0.572-0.469 0.919-0.597 0.281-0.109 0.706-0.241 1.485-0.275 0.844-0.037 1.097-0.047 3.232-0.047 2.138 0 2.391 0.009 3.232 0.047 0.781 0.034 1.203 0.166 1.485 0.275 0.347 0.128 0.663 0.331 0.919 0.597 0.266 0.259 0.469 0.572 0.597 0.919 0.109 0.281 0.241 0.706 0.275 1.485 0.037 0.844 0.047 1.097 0.047 3.232s-0.009 2.385-0.047 3.229z"></path>
              <path d="M8.030 3.891c-2.269 0-4.11 1.841-4.11 4.11s1.841 4.11 4.11 4.11c2.269 0 4.11-1.841 4.11-4.11s-1.841-4.11-4.11-4.11zM8.030 10.668c-1.472 0-2.666-1.194-2.666-2.666s1.194-2.666 2.666-2.666c1.472 0 2.666 1.194 2.666 2.666s-1.194 2.666-2.666 2.666z"></path>
              <path d="M13.262 3.729c0 0.53-0.43 0.96-0.96 0.96s-0.96-0.43-0.96-0.96c0-0.53 0.43-0.96 0.96-0.96s0.96 0.43 0.96 0.96z"></path>
        </symbol>
        <symbol id="icon-linkedin" viewBox="0 0 16 16">
              <path d="M15.996 16v-0.001h0.004v-5.868c0-2.871-0.618-5.082-3.974-5.082-1.613 0-2.696 0.885-3.138 1.725h-0.047v-1.457h-3.182v10.682h3.313v-5.289c0-1.393 0.264-2.739 1.989-2.739 1.699 0 1.725 1.589 1.725 2.829v5.201h3.31z"></path>
              <path d="M0.264 5.318h3.317v10.682h-3.317v-10.682z"></path>
              <path d="M1.921-0c-1.061 0-1.921 0.861-1.921 1.921s0.861 1.939 1.921 1.939c1.061 0 1.921-0.879 1.921-1.939s-0.861-1.921-1.921-1.921v0z"></path>
        </symbol>
        <symbol id="icon-facebook" viewBox="0 0 16 16">
               <path d="M10.665 2.657h1.461v-2.544c-0.252-0.035-1.119-0.113-2.128-0.113-2.106 0-3.549 1.325-3.549 3.759v2.241h-2.324v2.844h2.324v7.156h2.849v-7.155h2.23l0.354-2.844h-2.585v-1.959c0.001-0.822 0.222-1.385 1.367-1.385z"></path>
        </symbol>
        <symbol id="icon-twitter" viewBox="0 0 16 16">
               <path d="M16 3.039c-0.595 0.261-1.229 0.434-1.89 0.518 0.68-0.406 1.199-1.044 1.443-1.813-0.634 0.378-1.334 0.645-2.080 0.794-0.602-0.641-1.46-1.038-2.396-1.038-1.816 0-3.278 1.474-3.278 3.281 0 0.26 0.022 0.51 0.076 0.748-2.727-0.133-5.14-1.44-6.761-3.431-0.283 0.491-0.449 1.053-0.449 1.658 0 1.136 0.585 2.143 1.457 2.726-0.527-0.010-1.044-0.163-1.482-0.404 0 0.010 0 0.023 0 0.036 0 1.594 1.137 2.918 2.628 3.223-0.267 0.073-0.558 0.108-0.86 0.108-0.21 0-0.422-0.012-0.621-0.056 0.425 1.299 1.631 2.254 3.065 2.285-1.116 0.873-2.533 1.399-4.067 1.399-0.269 0-0.527-0.012-0.785-0.045 1.453 0.937 3.175 1.472 5.032 1.472 6.036 0 9.336-5 9.336-9.334 0-0.145-0.005-0.285-0.012-0.424 0.651-0.462 1.198-1.039 1.644-1.703z"></path>
        </symbol>
        <symbol id="icon-Logo-one" viewBox="0 0 30 16">
               <path d="M10.857 2l2.002 1.908-3.717-0.002v9.255h9.714v-3.539l2 1.905v-9.527h-10zM18.769 9.398l-5.677-5.409h5.677v5.409zM17.007 11.806h-6.327v-6.224h0.447v5.803h5.879v0.421zM11.942 14.875l0.236-0.485h0.194l-0.342 0.642v0.374h-0.176v-0.374l-0.342-0.642h0.195l0.236 0.485zM12.811 14.39h0.042l0.384 1.016h-0.184l-0.082-0.238h-0.393l-0.082 0.238h-0.183l0.382-1.016h0.117zM12.625 15.029h0.297l-0.149-0.431-0.149 0.431zM13.852 14.86c-0.008-0.010-0.015-0.019-0.022-0.028-0.026-0.034-0.046-0.068-0.061-0.1s-0.022-0.066-0.022-0.1c0-0.053 0.011-0.099 0.033-0.137s0.053-0.067 0.093-0.088c0.040-0.021 0.087-0.031 0.14-0.031 0.052 0 0.096 0.010 0.133 0.031s0.066 0.048 0.086 0.082c0.020 0.034 0.031 0.071 0.031 0.112 0 0.032-0.006 0.061-0.017 0.088s-0.028 0.051-0.048 0.073c-0.020 0.022-0.044 0.043-0.071 0.062l-0.071 0.051 0.201 0.237c0.007-0.013 0.013-0.027 0.018-0.041 0.017-0.045 0.026-0.094 0.026-0.149h0.145c0 0.049-0.005 0.096-0.015 0.14s-0.024 0.085-0.045 0.123c-0.008 0.016-0.018 0.031-0.029 0.045l0.149 0.176h-0.195l-0.059-0.069c-0.032 0.024-0.067 0.043-0.104 0.057-0.049 0.018-0.102 0.027-0.158 0.027-0.067 0-0.126-0.012-0.175-0.037s-0.087-0.059-0.114-0.102c-0.027-0.043-0.040-0.093-0.040-0.149 0-0.041 0.009-0.078 0.026-0.109s0.041-0.061 0.070-0.088c0.027-0.025 0.059-0.050 0.094-0.075zM13.935 14.963l-0.021 0.015c-0.025 0.020-0.043 0.039-0.055 0.058s-0.019 0.035-0.023 0.050c-0.004 0.015-0.006 0.029-0.006 0.040 0 0.030 0.006 0.057 0.019 0.081s0.032 0.043 0.057 0.058c0.025 0.014 0.056 0.021 0.091 0.021 0.039 0 0.076-0.009 0.112-0.026 0.018-0.009 0.035-0.020 0.052-0.032l-0.226-0.266zM13.976 14.777c-0.004-0.005-0.008-0.010-0.012-0.015-0.019-0.024-0.033-0.047-0.044-0.069s-0.016-0.044-0.016-0.065c0-0.022 0.004-0.042 0.012-0.059s0.021-0.033 0.037-0.043c0.016-0.011 0.036-0.017 0.060-0.017 0.034 0 0.060 0.010 0.079 0.031s0.028 0.043 0.028 0.067c0 0.028-0.006 0.052-0.019 0.071s-0.033 0.038-0.063 0.057l-0.062 0.042zM15.752 15.075h-0.174c-0.005 0.044-0.016 0.082-0.032 0.112s-0.039 0.053-0.070 0.069c-0.031 0.016-0.071 0.024-0.121 0.024-0.041 0-0.076-0.008-0.105-0.024s-0.053-0.039-0.073-0.069c-0.019-0.030-0.033-0.065-0.042-0.107s-0.013-0.088-0.013-0.14v-0.086c0-0.054 0.005-0.102 0.015-0.144s0.025-0.078 0.045-0.107c0.020-0.029 0.045-0.051 0.075-0.066s0.065-0.022 0.105-0.022c0.049 0 0.088 0.008 0.119 0.025s0.053 0.040 0.068 0.071c0.016 0.031 0.026 0.069 0.031 0.112h0.174c-0.007-0.068-0.026-0.128-0.057-0.181s-0.074-0.094-0.13-0.123c-0.056-0.030-0.124-0.045-0.205-0.045-0.064 0-0.121 0.011-0.172 0.033s-0.094 0.055-0.13 0.097c-0.036 0.042-0.064 0.092-0.084 0.151s-0.029 0.125-0.029 0.198v0.084c0 0.073 0.009 0.139 0.028 0.198s0.047 0.11 0.082 0.151c0.036 0.041 0.079 0.073 0.129 0.096s0.107 0.033 0.17 0.033c0.082 0 0.151-0.015 0.209-0.045s0.102-0.070 0.133-0.122c0.032-0.052 0.050-0.111 0.056-0.178zM16.721 14.926v-0.056c0-0.077-0.010-0.145-0.031-0.206s-0.049-0.113-0.086-0.156c-0.037-0.043-0.082-0.076-0.133-0.098s-0.109-0.034-0.172-0.034c-0.062 0-0.119 0.011-0.171 0.034s-0.096 0.055-0.133 0.098c-0.037 0.043-0.066 0.095-0.087 0.156s-0.031 0.129-0.031 0.206v0.056c0 0.077 0.010 0.146 0.031 0.206s0.050 0.113 0.088 0.156c0.038 0.043 0.082 0.076 0.133 0.098s0.109 0.033 0.171 0.033c0.063 0 0.12-0.011 0.172-0.033s0.096-0.056 0.133-0.098c0.037-0.043 0.066-0.095 0.086-0.156s0.030-0.13 0.030-0.206zM16.546 14.868v0.057c0 0.057-0.006 0.107-0.017 0.151s-0.026 0.081-0.047 0.111c-0.021 0.030-0.046 0.052-0.077 0.068s-0.065 0.022-0.104 0.022c-0.039 0-0.073-0.007-0.103-0.022s-0.056-0.038-0.078-0.068c-0.021-0.030-0.038-0.067-0.049-0.111s-0.017-0.094-0.017-0.151v-0.057c0-0.057 0.006-0.107 0.017-0.15s0.027-0.080 0.048-0.11c0.021-0.030 0.047-0.052 0.077-0.067s0.065-0.023 0.103-0.023 0.073 0.008 0.104 0.023c0.031 0.015 0.056 0.037 0.077 0.067s0.037 0.066 0.048 0.11c0.011 0.043 0.017 0.093 0.017 0.15z"></path>
        </symbol> 
        <symbol id="icon-Logo-two" viewBox="0 0 30 16">
               <path d="M14.318 1.696h-0.039c-0.060-0.004-0.12-0.005-0.18-0.007v0h-0.13c-0.113 0-0.229 0.003-0.344 0.009-0.009-0.001-0.017-0.001-0.026 0-1.041 0.059-2.061 0.319-3.005 0.766l-0.124 0.060v6.326l0.289-0.098c0.254-0.087 0.524-0.166 0.804-0.238 0.756-0.194 1.533-0.297 2.313-0.307v0.831c-0.103 0.001-0.204 0.004-0.304 0.009h-0.024c-0.601 0.033-1.197 0.124-1.779 0.273-0.738 0.185-1.451 0.462-2.12 0.826v-8.113c0.695-0.405 1.444-0.71 2.224-0.905 0.685-0.177 1.389-0.268 2.096-0.27h0.122c0.146 0.004 0.288 0.010 0.422 0.020 0.352 0.025 0.702 0.080 1.044 0.166v0.818c-0.333-0.078-0.671-0.129-1.012-0.153-0.007-0.001-0.014-0.001-0.021-0.002-0.071-0.006-0.141-0.012-0.207-0.012zM15.758 2.532c0.181 0.014 0.369 0.020 0.559 0.020 0.743-0.003 1.484-0.098 2.204-0.283 0.738-0.186 1.45-0.463 2.119-0.827v7.969c-0.696 0.405-1.445 0.71-2.225 0.905-0.685 0.176-1.389 0.267-2.096 0.27-0.536 0.004-1.070-0.059-1.59-0.187v-8.020c0.123 0.028 0.249 0.054 0.378 0.076 0.211 0.036 0.434 0.062 0.651 0.078zM19.813 2.594l-0.289 0.097c-0.266 0.089-0.534 0.169-0.804 0.24-0.785 0.202-1.592 0.305-2.402 0.308-0.189 0-0.362-0.005-0.53-0.016l-0.231-0.015v6.508l0.198 0.017c0.184 0.016 0.373 0.024 0.564 0.024 0.638-0.003 1.273-0.085 1.892-0.245 0.509-0.128 1.004-0.306 1.478-0.531l0.124-0.060v-6.328z"></path>
               <path d="M10.211 12.918c-0.042-0.043-0.092-0.077-0.147-0.099s-0.115-0.033-0.175-0.031c-0.064-0.001-0.127 0.011-0.186 0.035-0.054 0.022-0.103 0.054-0.145 0.095s-0.073 0.091-0.093 0.145c-0.023 0.057-0.034 0.118-0.033 0.179v1.084c-0.003 0.076 0.012 0.152 0.043 0.222 0.026 0.056 0.063 0.105 0.108 0.145 0.043 0.036 0.094 0.063 0.149 0.077 0.053 0.015 0.107 0.022 0.162 0.023 0.060 0.001 0.12-0.012 0.175-0.038 0.054-0.024 0.103-0.058 0.145-0.1 0.040-0.042 0.072-0.091 0.095-0.145s0.035-0.113 0.035-0.173v-0.121h-0.283v0.097c0.001 0.033-0.005 0.066-0.017 0.097-0.009 0.023-0.023 0.044-0.041 0.061-0.018 0.014-0.038 0.025-0.059 0.031-0.019 0.006-0.039 0.010-0.059 0.010-0.025 0.003-0.051-0.001-0.074-0.011s-0.044-0.026-0.059-0.047c-0.027-0.044-0.040-0.094-0.038-0.145v-1.011c-0.002-0.056 0.010-0.112 0.035-0.162 0.015-0.023 0.036-0.041 0.060-0.053s0.052-0.016 0.079-0.013c0.024-0.001 0.049 0.004 0.071 0.015s0.041 0.026 0.056 0.046c0.032 0.042 0.048 0.093 0.047 0.145v0.094h0.28v-0.11c0.001-0.065-0.011-0.129-0.035-0.19-0.021-0.057-0.053-0.109-0.095-0.153z"></path>
               <path d="M11.894 12.905c-0.090-0.076-0.204-0.118-0.322-0.119-0.058 0-0.115 0.011-0.169 0.031s-0.106 0.050-0.15 0.089c-0.047 0.042-0.084 0.094-0.11 0.152-0.029 0.066-0.043 0.138-0.041 0.21v1.040c-0.002 0.073 0.012 0.146 0.041 0.213 0.026 0.056 0.063 0.105 0.11 0.145 0.043 0.040 0.094 0.071 0.15 0.092 0.054 0.020 0.111 0.030 0.169 0.031s0.115-0.010 0.169-0.031c0.056-0.021 0.108-0.052 0.153-0.092s0.082-0.090 0.107-0.145c0.029-0.067 0.043-0.14 0.041-0.213v-1.040c0.001-0.072-0.013-0.144-0.041-0.21-0.025-0.057-0.062-0.109-0.107-0.152zM11.762 14.307c0.002 0.028-0.001 0.056-0.011 0.082s-0.025 0.050-0.045 0.069c-0.037 0.031-0.085 0.049-0.133 0.049s-0.096-0.017-0.133-0.049c-0.020-0.019-0.035-0.043-0.045-0.069s-0.014-0.054-0.011-0.082v-1.040c-0.002-0.028 0.001-0.056 0.011-0.082s0.025-0.050 0.045-0.069c0.037-0.031 0.085-0.049 0.133-0.049s0.096 0.017 0.133 0.049c0.020 0.019 0.035 0.043 0.045 0.069s0.014 0.054 0.011 0.082v1.040z"></path>
               <path d="M14.105 14.771v-1.968h-0.272l-0.358 1.042h-0.005l-0.361-1.042h-0.27v1.968h0.281v-1.197h0.005l0.275 0.846h0.14l0.278-0.846h0.005v1.197h0.281z"></path>
               <path d="M15.702 12.941c-0.043-0.049-0.098-0.086-0.159-0.108-0.066-0.021-0.135-0.032-0.204-0.031h-0.418v1.968h0.28v-0.769h0.145c0.088 0.004 0.175-0.015 0.253-0.054 0.064-0.035 0.117-0.087 0.154-0.15 0.032-0.052 0.054-0.111 0.064-0.171 0.011-0.074 0.016-0.149 0.015-0.224 0.003-0.095-0.006-0.189-0.027-0.281-0.019-0.068-0.054-0.13-0.103-0.181zM15.558 13.541c-0.001 0.036-0.010 0.071-0.026 0.102-0.016 0.030-0.041 0.054-0.072 0.069-0.042 0.019-0.087 0.027-0.132 0.025h-0.128v-0.669h0.145c0.044-0.002 0.087 0.006 0.126 0.025 0.029 0.017 0.052 0.042 0.066 0.073 0.015 0.035 0.024 0.072 0.025 0.11 0 0.041 0 0.085 0 0.131s0.003 0.093 0 0.135h-0.003z"></path>
               <path d="M17.031 12.803h-0.23l-0.434 1.968h0.28l0.082-0.423h0.382l0.082 0.423h0.28l-0.445-1.968zM16.772 14.080l0.138-0.713h0.005l0.137 0.713h-0.28z"></path>
               <path d="M18.843 13.989h-0.005l-0.424-1.186h-0.27v1.968h0.28v-1.184h0.006l0.429 1.184h0.264v-1.968h-0.28v1.186z"></path>
               <path d="M20.556 12.803l-0.226 0.782h-0.006l-0.226-0.782h-0.297l0.385 1.136v0.832h0.28v-0.832l0.385-1.136h-0.297z"></path>
               <path d="M9.429 15.327h0.135v0.379h0.092v-0.379h0.134v-0.078h-0.361v0.078z"></path>
               <path d="M10.565 15.249l-0.177 0.457h0.098l0.038-0.104h0.182l0.039 0.104h0.1l-0.181-0.457h-0.098zM10.55 15.525l0.062-0.169 0.062 0.169h-0.124z"></path>
               <path d="M11.688 15.538h0.106v0.059c-0.031 0.025-0.069 0.038-0.108 0.039-0.018 0.001-0.037-0.002-0.054-0.010s-0.032-0.019-0.043-0.034c-0.024-0.035-0.036-0.077-0.034-0.119 0-0.102 0.044-0.153 0.132-0.153 0.023-0.002 0.046 0.004 0.065 0.017s0.033 0.033 0.038 0.056l0.090-0.017c-0.020-0.089-0.084-0.134-0.194-0.134-0.059-0.002-0.116 0.019-0.16 0.059-0.023 0.023-0.041 0.050-0.052 0.081s-0.016 0.063-0.014 0.095c-0.003 0.063 0.018 0.124 0.059 0.171 0.022 0.023 0.049 0.041 0.079 0.053s0.062 0.016 0.094 0.014c0.072 0.002 0.141-0.024 0.194-0.073v-0.18h-0.198v0.077z"></path>
               <path d="M12.835 15.249h-0.093v0.457h0.32v-0.078h-0.228v-0.379z"></path>
               <path d="M13.805 15.249h-0.093v0.457h0.093v-0.457z"></path>
               <path d="M14.753 15.554l-0.187-0.305h-0.090v0.457h0.086v-0.299l0.184 0.299h0.092v-0.457h-0.085v0.305z"></path>
               <path d="M15.611 15.505h0.228v-0.078h-0.228v-0.1h0.245v-0.078h-0.338v0.457h0.347v-0.078h-0.254v-0.124z"></path>
               <path d="M17.689 15.429h-0.18v-0.18h-0.092v0.457h0.092v-0.2h0.18v0.2h0.092v-0.457h-0.092v0.18z"></path>
               <path d="M18.551 15.505h0.228v-0.078h-0.228v-0.1h0.246v-0.078h-0.338v0.457h0.346v-0.078h-0.254v-0.124z"></path>
               <path d="M19.721 15.505c0.079-0.012 0.12-0.054 0.12-0.127 0.002-0.019-0.001-0.039-0.009-0.057s-0.020-0.033-0.036-0.045c-0.041-0.021-0.088-0.030-0.134-0.027h-0.194v0.457h0.092v-0.191h0.018c0.020-0.001 0.039 0.002 0.057 0.010 0.013 0.008 0.025 0.020 0.033 0.033l0.1 0.145h0.11l-0.056-0.089c-0.025-0.044-0.059-0.082-0.101-0.11zM19.628 15.442h-0.068v-0.115h0.072c0.031-0.003 0.063 0.001 0.093 0.011 0.007 0.006 0.012 0.013 0.015 0.021s0.005 0.017 0.005 0.026c-0 0.009-0.003 0.018-0.007 0.026s-0.010 0.015-0.017 0.020c-0.030 0.009-0.062 0.013-0.093 0.011z"></path>
               <path d="M20.603 15.505h0.228v-0.078h-0.228v-0.1h0.246v-0.078h-0.338v0.457h0.347v-0.078h-0.254v-0.124z"></path>
        </symbol>
        <symbol id="icon-Logo-three" viewBox="0 0 30 16">
               <path d="M10.517 14.064c0.005 0 0.009 0.001 0.013 0.003s0.008 0.004 0.011 0.007l0.063 0.059c-0.049 0.048-0.109 0.086-0.177 0.113-0.080 0.029-0.165 0.042-0.252 0.040-0.081 0.001-0.162-0.011-0.237-0.038-0.068-0.024-0.128-0.060-0.178-0.106-0.051-0.048-0.090-0.104-0.115-0.164-0.028-0.068-0.041-0.139-0.040-0.211-0.001-0.072 0.014-0.144 0.043-0.212 0.028-0.061 0.069-0.117 0.122-0.164s0.118-0.083 0.189-0.107c0.078-0.026 0.16-0.039 0.244-0.038 0.077-0.002 0.154 0.010 0.226 0.034 0.062 0.023 0.12 0.055 0.17 0.095l-0.053 0.063c-0.004 0.004-0.008 0.008-0.013 0.011-0.006 0.004-0.014 0.005-0.021 0.005s-0.016-0.003-0.023-0.007l-0.028-0.017-0.039-0.022c-0.017-0.008-0.035-0.015-0.053-0.021-0.023-0.007-0.047-0.013-0.072-0.017-0.031-0.005-0.062-0.007-0.094-0.007-0.060-0.001-0.12 0.009-0.175 0.028-0.052 0.018-0.099 0.045-0.137 0.080-0.039 0.037-0.070 0.080-0.089 0.127-0.022 0.054-0.033 0.11-0.032 0.167-0.001 0.058 0.010 0.115 0.032 0.17 0.019 0.046 0.049 0.089 0.088 0.126 0.036 0.034 0.081 0.061 0.131 0.078 0.051 0.018 0.107 0.027 0.162 0.027 0.032 0 0.064-0.001 0.096-0.005 0.052-0.005 0.102-0.021 0.146-0.045 0.022-0.012 0.043-0.026 0.062-0.042 0.008-0.007 0.019-0.010 0.030-0.011z"></path>
               <path d="M12.339 13.766c0.001 0.071-0.013 0.143-0.043 0.21-0.026 0.061-0.066 0.116-0.119 0.163s-0.116 0.083-0.186 0.107c-0.154 0.050-0.325 0.050-0.479 0-0.070-0.024-0.133-0.061-0.185-0.107s-0.093-0.103-0.12-0.164c-0.057-0.136-0.057-0.284 0-0.42 0.027-0.061 0.068-0.117 0.12-0.165 0.053-0.045 0.116-0.080 0.185-0.103 0.154-0.051 0.325-0.051 0.479 0 0.070 0.024 0.133 0.061 0.186 0.107s0.092 0.102 0.119 0.162c0.029 0.067 0.044 0.139 0.043 0.211zM12.173 13.766c0.001-0.057-0.009-0.114-0.030-0.168-0.018-0.047-0.046-0.089-0.084-0.126-0.037-0.035-0.083-0.062-0.133-0.080-0.112-0.037-0.236-0.037-0.349 0-0.051 0.018-0.096 0.045-0.133 0.080-0.039 0.036-0.068 0.079-0.085 0.126-0.040 0.11-0.040 0.227 0 0.337 0.018 0.047 0.047 0.090 0.085 0.126 0.037 0.034 0.083 0.061 0.133 0.079 0.112 0.036 0.236 0.036 0.349 0 0.051-0.018 0.096-0.044 0.133-0.079 0.038-0.037 0.067-0.080 0.084-0.126 0.021-0.054 0.031-0.111 0.030-0.168z"></path>
               <path d="M13.582 13.942l0.017 0.038c0.006-0.013 0.012-0.026 0.018-0.038s0.013-0.025 0.021-0.037l0.403-0.626c0.008-0.011 0.015-0.018 0.023-0.020 0.011-0.003 0.022-0.004 0.033-0.003h0.119v1.018h-0.141v-0.749c0-0.009 0-0.020 0-0.032s-0.001-0.023 0-0.035l-0.405 0.635c-0.005 0.010-0.013 0.018-0.024 0.023s-0.022 0.009-0.035 0.009h-0.023c-0.012 0-0.024-0.003-0.035-0.008s-0.019-0.014-0.024-0.023l-0.417-0.639c0 0.012 0 0.024 0 0.036s0 0.023 0 0.032v0.749h-0.136v-1.016h0.119c0.011-0.001 0.022 0.001 0.033 0.003 0.010 0.004 0.018 0.011 0.022 0.020l0.412 0.627c0.008 0.012 0.015 0.024 0.021 0.036z"></path>
               <path d="M15.098 13.892v0.381h-0.158v-1.017h0.352c0.066-0.001 0.133 0.006 0.196 0.022 0.051 0.012 0.098 0.034 0.139 0.063 0.035 0.028 0.062 0.062 0.079 0.1 0.019 0.041 0.028 0.086 0.027 0.13 0.001 0.045-0.009 0.089-0.029 0.13-0.019 0.039-0.048 0.074-0.085 0.102-0.040 0.031-0.088 0.054-0.14 0.067-0.061 0.017-0.126 0.025-0.19 0.024l-0.191-0.003zM15.098 13.783h0.191c0.041 0 0.083-0.005 0.122-0.015 0.033-0.009 0.063-0.024 0.088-0.044 0.024-0.019 0.042-0.042 0.054-0.067 0.013-0.027 0.019-0.056 0.019-0.086 0.002-0.028-0.004-0.057-0.016-0.083s-0.031-0.050-0.055-0.069c-0.060-0.040-0.136-0.060-0.212-0.055h-0.191v0.419z"></path>
               <path d="M17.218 14.275h-0.125c-0.012 0-0.025-0.003-0.035-0.009s-0.016-0.014-0.021-0.024l-0.107-0.246h-0.539l-0.111 0.246c-0.004 0.009-0.011 0.017-0.020 0.023-0.010 0.007-0.023 0.010-0.035 0.010h-0.125l0.473-1.018h0.164l0.48 1.018zM16.438 13.897h0.445l-0.188-0.414c-0.014-0.031-0.026-0.063-0.035-0.096l-0.018 0.053c-0.006 0.016-0.012 0.031-0.017 0.043l-0.186 0.414z"></path>
               <path d="M17.9 13.261c0.009 0.004 0.018 0.011 0.024 0.018l0.69 0.768c0-0.012 0-0.024 0-0.036s0-0.023 0-0.034v-0.721h0.141v1.018h-0.079c-0.011 0-0.022-0.002-0.032-0.006s-0.018-0.011-0.025-0.019l-0.689-0.767c0.001 0.012 0.001 0.023 0 0.035s0 0.022 0 0.031v0.726h-0.141v-1.018h0.084c0.010-0 0.019 0.001 0.028 0.005z"></path>
               <path d="M19.917 13.87v0.404h-0.158v-0.404l-0.436-0.613h0.141c0.012-0.001 0.024 0.002 0.034 0.009 0.009 0.007 0.016 0.014 0.021 0.023l0.273 0.396c0.011 0.017 0.020 0.032 0.028 0.047s0.014 0.029 0.020 0.043l0.021-0.044c0.008-0.016 0.017-0.032 0.027-0.047l0.269-0.398c0.006-0.008 0.013-0.015 0.021-0.022 0.009-0.007 0.022-0.011 0.034-0.010h0.143l-0.437 0.616z"></path>
               <path d="M13.504 11.548c0.069 0.007 0.138 0.013 0.208 0.019 1.064-0.407 1.964-1.072 2.588-1.914s0.943-1.821 0.919-2.817l-1.173-1.002c0.238 1.060 0.127 2.156-0.322 3.165s-1.218 1.892-2.221 2.549z"></path>
               <path d="M13.085 11.501l0.032 0.005c1.071-0.655 1.888-1.569 2.345-2.625s0.532-2.204 0.217-3.297l-1.67-1.427c0.676 1.173 0.948 2.486 0.784 3.786s-0.755 2.534-1.707 3.557z"></path>
               <path d="M18.75 8.012c-0.284 1.094-0.973 2.081-1.965 2.814-0.29 0.215-0.602 0.407-0.934 0.573 0.808-0.203 1.551-0.562 2.171-1.049s1.101-1.089 1.406-1.76l-0.677-0.578z"></path>
               <path d="M18.484 7.851l-0.965-0.824c-0.018 0.94-0.331 1.858-0.905 2.659s-1.389 1.457-2.36 1.898h0.005c0.216-0 0.433-0.011 0.647-0.033 0.908-0.316 1.709-0.82 2.334-1.466s1.052-1.413 1.245-2.234z"></path>
               <path d="M13.225 3.556l-1.151-0.984c-1.029 0.34-1.913 0.937-2.538 1.713s-0.961 1.696-0.964 2.638v0c0.004 1.041 0.414 2.051 1.166 2.871s1.801 1.402 2.984 1.654c1.055-1.099 1.673-2.456 1.764-3.875s-0.351-2.826-1.26-4.016z"></path>
               <path d="M21.143 7.699c-0.004-1.235-0.58-2.419-1.603-3.292s-2.408-1.366-3.853-1.369c-0.668-0.001-1.33 0.105-1.954 0.311l7.045 6.019c0.241-0.532 0.365-1.098 0.364-1.668z"></path>
        </symbol>
        <symbol id="icon-Logo-four" viewBox="0 0 30 16">
               <path d="M6.879 6.148h-0.001c-0.682 0-1.234 0.498-1.234 1.113v0.001c0 0.615 0.553 1.113 1.234 1.113h0.001c0.682 0 1.234-0.498 1.234-1.113v-0.001c0-0.615-0.553-1.113-1.234-1.113z"></path>
               <path d="M15.989 5.792c-0.002-0.854-0.379-1.672-1.048-2.275s-1.577-0.944-2.523-0.946v0c-0.947 0.002-1.855 0.341-2.524 0.945s-1.047 1.422-1.049 2.276v4.707c0 0 7.144-0.717 7.145-4.706v-0.001z"></path>
               <path d="M3.143 12.044c0.002 0.594 0.264 1.163 0.73 1.583s1.097 0.657 1.756 0.659c0.659-0.002 1.29-0.238 1.755-0.658s0.728-0.989 0.73-1.583v-3.275c0 0-4.971 0.5-4.971 3.274zM5.628 12.631c-0.129 0-0.255-0.034-0.362-0.099s-0.19-0.156-0.24-0.263-0.062-0.225-0.037-0.339c0.025-0.114 0.087-0.218 0.178-0.3s0.207-0.138 0.333-0.161c0.126-0.023 0.257-0.011 0.376 0.033s0.221 0.12 0.292 0.216c0.072 0.096 0.11 0.21 0.11 0.326 0 0.077-0.016 0.154-0.049 0.225s-0.080 0.136-0.141 0.191c-0.060 0.055-0.132 0.098-0.211 0.128s-0.164 0.045-0.25 0.045v-0.002z"></path>
               <path d="M10.174 11.576v1.219h-0.251v-1.219h0.251zM10.659 12.096v0.196h-0.554v-0.196h0.554zM10.718 11.576v0.197h-0.613v-0.197h0.613zM11.865 12.157v0.058c0 0.093-0.013 0.176-0.038 0.249s-0.061 0.136-0.106 0.188c-0.046 0.051-0.1 0.091-0.164 0.118s-0.133 0.041-0.21 0.041c-0.076 0-0.146-0.014-0.21-0.041s-0.118-0.067-0.164-0.118c-0.046-0.052-0.082-0.115-0.108-0.188s-0.038-0.157-0.038-0.249v-0.058c0-0.093 0.013-0.176 0.038-0.249s0.061-0.136 0.106-0.188c0.046-0.052 0.101-0.092 0.164-0.119s0.134-0.041 0.21-0.041c0.077 0 0.147 0.014 0.21 0.041s0.118 0.067 0.164 0.119c0.046 0.052 0.082 0.115 0.107 0.188s0.039 0.156 0.039 0.249zM11.611 12.214v-0.059c0-0.065-0.006-0.122-0.018-0.171s-0.029-0.090-0.052-0.124-0.051-0.059-0.084-0.075c-0.033-0.017-0.071-0.026-0.113-0.026s-0.080 0.009-0.113 0.026c-0.032 0.017-0.060 0.042-0.083 0.075s-0.039 0.075-0.051 0.124c-0.012 0.049-0.018 0.106-0.018 0.171v0.059c0 0.064 0.006 0.121 0.018 0.171s0.029 0.091 0.052 0.125c0.023 0.033 0.051 0.059 0.084 0.076s0.071 0.026 0.113 0.026c0.042 0 0.080-0.009 0.113-0.026s0.061-0.043 0.083-0.076c0.022-0.034 0.039-0.076 0.051-0.125s0.018-0.107 0.018-0.171zM12.68 12.476c0-0.022-0.003-0.041-0.010-0.059s-0.018-0.034-0.035-0.049c-0.017-0.015-0.042-0.030-0.073-0.044s-0.072-0.030-0.121-0.045c-0.055-0.018-0.108-0.038-0.157-0.060s-0.093-0.048-0.131-0.078c-0.037-0.030-0.067-0.065-0.089-0.105s-0.032-0.086-0.032-0.138c0-0.051 0.011-0.097 0.033-0.138s0.054-0.078 0.094-0.107c0.040-0.030 0.088-0.053 0.142-0.069s0.116-0.024 0.182-0.024c0.090 0 0.168 0.016 0.235 0.049s0.119 0.077 0.156 0.133c0.037 0.056 0.056 0.121 0.056 0.193h-0.249c0-0.036-0.008-0.067-0.023-0.094s-0.037-0.049-0.067-0.064c-0.030-0.016-0.067-0.023-0.112-0.023-0.044 0-0.080 0.007-0.109 0.020s-0.051 0.030-0.065 0.053c-0.015 0.022-0.022 0.046-0.022 0.074 0 0.021 0.005 0.039 0.015 0.056s0.026 0.032 0.047 0.047 0.046 0.028 0.076 0.041c0.030 0.013 0.065 0.025 0.105 0.038 0.066 0.020 0.125 0.043 0.175 0.068s0.093 0.053 0.127 0.085c0.034 0.031 0.060 0.067 0.077 0.106s0.026 0.085 0.026 0.135c0 0.053-0.010 0.1-0.031 0.142s-0.051 0.077-0.090 0.106c-0.039 0.029-0.086 0.051-0.14 0.066s-0.115 0.023-0.182 0.023c-0.060 0-0.12-0.008-0.178-0.023s-0.112-0.040-0.16-0.073c-0.047-0.032-0.085-0.074-0.114-0.124s-0.043-0.11-0.043-0.178h0.252c0 0.038 0.006 0.070 0.018 0.096s0.028 0.047 0.049 0.064c0.022 0.016 0.047 0.028 0.077 0.035s0.063 0.011 0.099 0.011c0.044 0 0.079-0.006 0.107-0.018s0.049-0.029 0.063-0.051c0.014-0.022 0.021-0.046 0.021-0.074zM13.647 11.576v1.219h-0.25v-1.219h0.25zM14.022 11.576v0.197h-0.994v-0.197h0.994zM14.983 12.599v0.196h-0.649v-0.196h0.649zM14.416 11.576v1.219h-0.251v-1.219h0.251zM14.898 12.072v0.191h-0.564v-0.191h0.564zM14.982 11.576v0.197h-0.648v-0.197h0.648zM15.129 11.576h0.455c0.093 0 0.173 0.014 0.24 0.042s0.119 0.069 0.156 0.124 0.054 0.122 0.054 0.202c0 0.065-0.011 0.121-0.033 0.168s-0.053 0.085-0.093 0.116c-0.040 0.031-0.086 0.055-0.14 0.074l-0.080 0.042h-0.395l-0.002-0.196h0.294c0.044 0 0.081-0.008 0.11-0.023s0.051-0.037 0.065-0.065c0.015-0.028 0.023-0.060 0.023-0.097 0-0.039-0.007-0.073-0.022-0.101s-0.037-0.050-0.066-0.065-0.067-0.023-0.111-0.023h-0.203v1.022h-0.251v-1.219zM15.811 12.794l-0.278-0.543 0.265-0.002 0.281 0.533v0.012h-0.269zM17.129 12.36h-0.311v-0.196h0.311c0.048 0 0.087-0.008 0.117-0.023s0.052-0.039 0.066-0.067c0.014-0.028 0.021-0.061 0.021-0.096s-0.007-0.070-0.021-0.101c-0.014-0.031-0.036-0.056-0.066-0.075s-0.069-0.028-0.117-0.028h-0.224v1.022h-0.251v-1.219h0.475c0.095 0 0.177 0.017 0.245 0.052s0.121 0.081 0.157 0.141c0.036 0.060 0.054 0.129 0.054 0.207 0 0.079-0.018 0.147-0.054 0.204s-0.089 0.102-0.157 0.133c-0.068 0.031-0.15 0.047-0.245 0.047zM18.577 12.599v0.196h-0.649v-0.196h0.649zM18.010 11.576v1.219h-0.251v-1.219h0.251zM18.493 12.072v0.191h-0.564v-0.191h0.564zM18.576 11.576v0.197h-0.648v-0.197h0.648zM19.285 11.576v1.219h-0.25v-1.219h0.25zM19.66 11.576v0.197h-0.994v-0.197h0.994zM20.621 12.599v0.196h-0.649v-0.196h0.649zM20.055 11.576v1.219h-0.251v-1.219h0.251zM20.537 12.072v0.191h-0.564v-0.191h0.564zM20.62 11.576v0.197h-0.648v-0.197h0.648zM20.768 11.576h0.455c0.093 0 0.173 0.014 0.24 0.042s0.119 0.069 0.156 0.124c0.036 0.055 0.054 0.122 0.054 0.202 0 0.065-0.011 0.121-0.033 0.168s-0.053 0.085-0.093 0.116c-0.040 0.031-0.086 0.055-0.14 0.074l-0.080 0.042h-0.395l-0.002-0.196h0.294c0.044 0 0.081-0.008 0.11-0.023s0.051-0.037 0.065-0.065c0.015-0.028 0.023-0.060 0.023-0.097 0-0.039-0.007-0.073-0.022-0.101s-0.037-0.050-0.066-0.065c-0.030-0.015-0.067-0.023-0.111-0.023h-0.203v1.022h-0.251v-1.219zM21.449 12.794l-0.278-0.543 0.265-0.002 0.281 0.533v0.012h-0.269zM22.5 12.476c0-0.022-0.003-0.041-0.010-0.059s-0.018-0.034-0.035-0.049c-0.017-0.015-0.042-0.030-0.073-0.044s-0.072-0.030-0.121-0.045c-0.055-0.018-0.108-0.038-0.157-0.060s-0.093-0.048-0.131-0.078c-0.037-0.030-0.067-0.065-0.089-0.105s-0.032-0.086-0.032-0.138c0-0.051 0.011-0.097 0.033-0.138s0.054-0.078 0.094-0.107c0.040-0.030 0.088-0.053 0.142-0.069s0.116-0.024 0.182-0.024c0.090 0 0.168 0.016 0.235 0.049s0.119 0.077 0.156 0.133c0.037 0.056 0.056 0.121 0.056 0.193h-0.249c0-0.036-0.008-0.067-0.023-0.094s-0.037-0.049-0.067-0.064c-0.030-0.016-0.067-0.023-0.112-0.023-0.044 0-0.080 0.007-0.109 0.020s-0.051 0.030-0.065 0.053c-0.015 0.022-0.022 0.046-0.022 0.074 0 0.021 0.005 0.039 0.015 0.056s0.026 0.032 0.047 0.047 0.046 0.028 0.076 0.041c0.030 0.013 0.065 0.025 0.105 0.038 0.066 0.020 0.125 0.043 0.175 0.068s0.093 0.053 0.127 0.085c0.034 0.031 0.060 0.067 0.077 0.106s0.026 0.085 0.026 0.135c0 0.053-0.010 0.1-0.031 0.142s-0.051 0.077-0.090 0.106c-0.039 0.029-0.086 0.051-0.14 0.066s-0.115 0.023-0.182 0.023c-0.060 0-0.12-0.008-0.178-0.023s-0.112-0.040-0.16-0.073c-0.047-0.032-0.085-0.074-0.114-0.124s-0.043-0.11-0.043-0.178h0.252c0 0.038 0.006 0.070 0.018 0.096s0.028 0.047 0.049 0.064c0.022 0.016 0.047 0.028 0.077 0.035s0.063 0.011 0.099 0.011c0.044 0 0.079-0.006 0.107-0.018s0.049-0.029 0.063-0.051c0.014-0.022 0.021-0.046 0.021-0.074z"></path>
        </symbol>
        <symbol id="icon-Logo-five" viewBox="0 0 30 16">
               <path d="M7.655 12.678c0.070 0.078 0.107 0.176 0.106 0.276 0.004 0.066-0.009 0.131-0.038 0.191s-0.071 0.114-0.126 0.158c-0.136 0.093-0.305 0.138-0.475 0.128h-0.836v-1.752h0.819c0.162-0.010 0.322 0.031 0.454 0.116 0.053 0.040 0.095 0.090 0.122 0.147s0.040 0.119 0.036 0.181c0.005 0.097-0.029 0.192-0.095 0.268-0.064 0.070-0.151 0.118-0.249 0.137 0.111 0.018 0.211 0.071 0.282 0.15zM6.675 12.414h0.35c0.080 0.005 0.159-0.015 0.222-0.058 0.026-0.021 0.047-0.048 0.060-0.078s0.018-0.062 0.015-0.093c0.002-0.032-0.003-0.064-0.016-0.093s-0.033-0.056-0.058-0.078c-0.066-0.044-0.147-0.065-0.229-0.059h-0.344v0.46zM7.281 13.085c0.028-0.022 0.050-0.049 0.065-0.080s0.021-0.064 0.018-0.098c0.002-0.034-0.004-0.068-0.019-0.099s-0.037-0.059-0.066-0.081c-0.068-0.046-0.153-0.068-0.238-0.063h-0.367v0.482h0.372c0.084 0.004 0.166-0.017 0.235-0.061z"></path>
               <path d="M9.328 13.431l-0.455-0.685h-0.171v0.685h-0.392v-1.752h0.742c0.187-0.012 0.372 0.042 0.516 0.149 0.104 0.095 0.166 0.22 0.176 0.353s-0.033 0.265-0.121 0.372c-0.092 0.094-0.216 0.157-0.354 0.178l0.485 0.7h-0.426zM8.702 12.508h0.32c0.222 0 0.334-0.088 0.334-0.265 0.002-0.036-0.004-0.072-0.018-0.106s-0.036-0.065-0.064-0.091c-0.070-0.053-0.161-0.078-0.252-0.071h-0.324l0.004 0.533z"></path>
               <path d="M11.469 13.079h-0.781l-0.138 0.353h-0.411l0.717-1.732h0.444l0.714 1.732h-0.411l-0.135-0.353zM11.365 12.813l-0.285-0.74-0.285 0.74h0.57z"></path>
               <path d="M14.15 13.431h-0.389l-0.872-1.191v1.191h-0.388v-1.752h0.388l0.872 1.198v-1.198h0.389v1.752z"></path>
               <path d="M16.369 13.012c-0.080 0.132-0.203 0.24-0.352 0.309-0.169 0.077-0.357 0.115-0.547 0.11h-0.692v-1.752h0.692c0.189-0.004 0.377 0.033 0.547 0.108 0.149 0.068 0.271 0.174 0.352 0.306 0.080 0.142 0.122 0.3 0.122 0.46s-0.042 0.317-0.122 0.46zM15.924 12.97c0.111-0.116 0.172-0.265 0.172-0.418s-0.061-0.302-0.172-0.418c-0.134-0.105-0.309-0.159-0.487-0.149h-0.27v1.134h0.27c0.178 0.010 0.353-0.043 0.487-0.149z"></path>
               <path d="M11.713 1.933c0 0 5.019 1.706 4.913 4.174v4.175c0 0-5.015-1.707-4.911-4.175l-0.002-4.174z"></path>
               <path d="M21.097 9.306c0.948-0.587 2.044-0.951 3.189-1.058v-1.307c-1.319 0.458-2.438 1.287-3.189 2.365z"></path>
               <path d="M20.527 9.699c0.776-1.406 2.121-2.492 3.758-3.033v-3.766c0 0-7.148 2.43-6.997 5.945v5.945c0 0 0.319-0.109 0.82-0.312 0-0.19 0-0.382 0.023-0.574 0.148-1.632 1.010-3.144 2.396-4.204z"></path>
               <path d="M19.848 11.908c0.038-0.412 0.121-0.82 0.25-1.217-0.863 0.915-1.386 2.051-1.495 3.248-0.010 0.113-0.016 0.226-0.019 0.342 0.406-0.175 0.879-0.395 1.375-0.652-0.127-0.566-0.164-1.146-0.111-1.721z"></path>
               <path d="M20.132 11.929c-0.048 0.521-0.018 1.045 0.088 1.559 1.953-1.052 4.147-2.677 4.063-4.642v-0.171c-1.395 0.141-2.701 0.69-3.716 1.563-0.238 0.541-0.384 1.111-0.435 1.691z"></path>
        </symbol>
        <symbol id="icon-Logo-six" viewBox="0 0 30 16">
               <path d="M15.294 7.841c-0.127-0.169-0.188-0.368-0.173-0.569v-0.825c0-0.253 0.057-0.445 0.172-0.577s0.312-0.197 0.591-0.196c0.263 0 0.449 0.056 0.559 0.168 0.12 0.143 0.179 0.317 0.165 0.494v0.194h-0.47v-0.196c0.002-0.064-0.003-0.129-0.014-0.192-0.007-0.044-0.030-0.084-0.067-0.114-0.048-0.033-0.109-0.049-0.17-0.044-0.064-0.004-0.128 0.013-0.179 0.047-0.041 0.034-0.068 0.078-0.078 0.126-0.013 0.067-0.020 0.136-0.018 0.204v1.001c-0.007 0.097 0.013 0.193 0.060 0.281 0.023 0.030 0.056 0.053 0.094 0.068s0.080 0.020 0.121 0.016c0.060 0.004 0.12-0.012 0.166-0.045 0.038-0.033 0.063-0.076 0.070-0.122 0.011-0.066 0.016-0.134 0.015-0.201v-0.203h0.47v0.186c0.013 0.184-0.044 0.366-0.162 0.519-0.108 0.123-0.292 0.184-0.562 0.184s-0.475-0.065-0.59-0.201z"></path>
               <path d="M17.25 7.849c-0.119-0.128-0.178-0.316-0.178-0.563v-0.868c0-0.245 0.059-0.431 0.178-0.557s0.317-0.189 0.595-0.188c0.276 0 0.474 0.063 0.592 0.188s0.179 0.311 0.179 0.557v0.868c0 0.245-0.060 0.433-0.181 0.562s-0.317 0.194-0.59 0.194-0.476-0.065-0.595-0.193zM18.065 7.641c0.043-0.080 0.062-0.169 0.056-0.257v-1.063c0.005-0.087-0.014-0.173-0.055-0.252-0.024-0.030-0.057-0.054-0.096-0.069s-0.082-0.020-0.124-0.015c-0.042-0.005-0.085 0-0.124 0.015s-0.072 0.039-0.097 0.069c-0.043 0.079-0.062 0.165-0.056 0.252v1.068c-0.006 0.088 0.013 0.177 0.056 0.257 0.027 0.027 0.061 0.049 0.099 0.064s0.079 0.023 0.121 0.023 0.083-0.008 0.121-0.023c0.038-0.015 0.072-0.037 0.099-0.064v-0.005z"></path>
               <path d="M19.182 5.699h0.506l0.38 1.601 0.389-1.601h0.492l0.050 2.312h-0.364l-0.039-1.607-0.376 1.607h-0.292l-0.389-1.612-0.036 1.612h-0.368l0.046-2.312z"></path>
               <path d="M21.567 5.699h0.788c0.454 0 0.681 0.219 0.681 0.656 0 0.419-0.239 0.628-0.717 0.628h-0.268v1.027h-0.486l0.003-2.312zM22.24 6.687c0.048 0.005 0.097 0.001 0.143-0.011s0.089-0.034 0.124-0.062c0.056-0.078 0.080-0.17 0.070-0.261 0.003-0.071-0.005-0.141-0.023-0.21-0.007-0.023-0.019-0.045-0.036-0.063s-0.038-0.035-0.061-0.047c-0.068-0.028-0.142-0.041-0.217-0.037h-0.189v0.691h0.189z"></path>
               <path d="M23.737 5.699h0.522l0.536 2.312h-0.453l-0.106-0.533h-0.466l-0.109 0.533h-0.46l0.536-2.312zM24.183 7.21l-0.182-0.97-0.182 0.97h0.364z"></path>
               <path d="M25.228 5.699h0.34l0.652 1.319v-1.319h0.404v2.312h-0.324l-0.656-1.377v1.377h-0.417l0.001-2.312z"></path>
               <path d="M27.569 7.129l-0.542-1.427h0.456l0.331 0.917 0.31-0.917h0.446l-0.535 1.427v0.881h-0.467v-0.881z"></path>
               <path d="M16.045 9.021v0.121h-0.397v0.939h-0.166v-0.939h-0.399v-0.121h0.962z"></path>
               <path d="M17.289 10.081h-0.128c-0.013 0.001-0.026-0.003-0.036-0.010-0.010-0.006-0.017-0.015-0.021-0.024l-0.115-0.252h-0.551l-0.115 0.252c-0.003 0.011-0.009 0.020-0.017 0.029-0.010 0.007-0.023 0.011-0.036 0.010h-0.128l0.486-1.060h0.169l0.492 1.056zM16.484 9.688h0.459l-0.195-0.431c-0.014-0.033-0.026-0.066-0.036-0.1-0.007 0.020-0.013 0.039-0.018 0.056l-0.017 0.044-0.193 0.431z"></path>
               <path d="M18.128 9.977c0.030 0.001 0.061 0.001 0.091 0 0.026-0.002 0.052-0.007 0.078-0.013 0.024-0.005 0.047-0.011 0.070-0.019 0.021-0.008 0.043-0.017 0.065-0.026v-0.238h-0.195c-0.005 0-0.010-0-0.014-0.002s-0.009-0.004-0.012-0.007c-0.003-0.002-0.006-0.005-0.007-0.009s-0.002-0.007-0.002-0.011v-0.081h0.377v0.406c-0.031 0.019-0.063 0.036-0.097 0.050s-0.071 0.027-0.108 0.036c-0.040 0.010-0.080 0.017-0.122 0.022-0.047 0.005-0.095 0.007-0.142 0.007-0.084 0.001-0.167-0.013-0.245-0.039-0.073-0.025-0.139-0.063-0.195-0.111-0.054-0.048-0.097-0.105-0.125-0.168-0.031-0.070-0.046-0.145-0.045-0.22-0.001-0.076 0.014-0.151 0.044-0.222 0.028-0.063 0.071-0.12 0.125-0.168s0.122-0.085 0.195-0.11c0.083-0.027 0.172-0.040 0.261-0.039 0.045-0 0.090 0.003 0.135 0.009 0.040 0.006 0.078 0.015 0.116 0.027 0.034 0.011 0.067 0.025 0.097 0.042s0.058 0.035 0.085 0.055l-0.047 0.065c-0.004 0.006-0.009 0.011-0.016 0.015s-0.014 0.005-0.022 0.006c-0.011-0-0.021-0.003-0.030-0.008-0.015-0.007-0.030-0.015-0.048-0.025-0.021-0.011-0.042-0.021-0.065-0.029-0.029-0.010-0.059-0.018-0.090-0.024-0.041-0.006-0.082-0.010-0.124-0.009-0.064-0.001-0.128 0.009-0.188 0.029-0.054 0.019-0.103 0.047-0.143 0.084-0.040 0.038-0.071 0.083-0.090 0.132-0.043 0.115-0.043 0.239 0 0.353 0.021 0.050 0.054 0.095 0.097 0.133 0.040 0.036 0.088 0.065 0.142 0.084 0.062 0.018 0.127 0.025 0.193 0.021z"></path>
               <path d="M19.678 9.96h0.531v0.121h-0.694v-1.060h0.166l-0.004 0.939z"></path>
               <path d="M20.762 10.081h-0.166v-1.060h0.166v1.060z"></path>
               <path d="M21.381 9.026c0.010 0.005 0.019 0.011 0.025 0.019l0.711 0.799c-0.001-0.013-0.001-0.025 0-0.038s0-0.024 0-0.034v-0.755h0.145v1.064h-0.084c-0.012 0.001-0.025-0.001-0.036-0.006-0.010-0.005-0.019-0.012-0.026-0.020l-0.71-0.798c0 0.013 0 0.024 0 0.036s0 0.023 0 0.033v0.756h-0.139v-1.060h0.087c0.009 0 0.019 0.002 0.027 0.005z"></path>
               <path d="M23.487 9.021v0.117h-0.589v0.35h0.478v0.112h-0.478v0.362h0.589v0.117h-0.761v-1.058h0.761z"></path>
               <path d="M6.056 2.474l7.386 1.81v6.342l-7.386-1.809v-6.342zM5.582 1.933v7.191l8.333 2.042v-7.19l-8.333-2.043z"></path>
               <path d="M10.048 14.505l-8.334-2.044v-7.19l8.334 2.043v7.191z"></path>
               <path d="M5.72 2.392l7.29 1.787-3.1 2.676-7.291-1.788 3.101-2.675zM5.582 1.933l-3.868 3.337 8.334 2.043 3.867-3.337-8.333-2.043z"></path>
               <path d="M10.517 14.1l3.398-2.933-3.398-0.833v3.766z"></path>
        </symbol>
    </defs>
</svg>
